<svg xmlns="http://www.w3.org/2000/svg" width="171.333" height="50.189" viewBox="0 0 171.333 50.189">
  <g id="in-logo-1" transform="translate(-1263 -752)">
    <g id="Rectangle_1" data-name="Rectangle 1" transform="translate(1263 752)" fill="#0467b1" stroke="#0467b1" stroke-width="1">
      <rect width="12.915" height="12.915" stroke="none"/>
      <rect x="0.5" y="0.5" width="11.915" height="11.915" fill="none"/>
    </g>
    <g id="Rectangle_2" data-name="Rectangle 2" transform="translate(1287.849 752)" fill="#0467b1" stroke="#0467b1" stroke-width="1">
      <rect width="12.915" height="12.915" stroke="none"/>
      <rect x="0.5" y="0.5" width="11.915" height="11.915" fill="none"/>
    </g>
    <g id="Rectangle_3" data-name="Rectangle 3" transform="translate(1275.425 764.425)" fill="#008dd4" stroke="#008dd5" stroke-width="1">
      <rect width="12.915" height="12.915" stroke="none"/>
      <rect x="0.5" y="0.5" width="11.915" height="11.915" fill="none"/>
    </g>
    <g id="Rectangle_4" data-name="Rectangle 4" transform="translate(1275.425 776.849)" fill="#00aeea" stroke="#00aeeb" stroke-width="1">
      <rect width="12.915" height="12.915" stroke="none"/>
      <rect x="0.5" y="0.5" width="11.915" height="11.915" fill="none"/>
    </g>
    <g id="Rectangle_5" data-name="Rectangle 5" transform="translate(1287.849 789.274)" fill="#0467b1" stroke="#0367b1" stroke-width="1">
      <rect width="12.915" height="12.915" stroke="none"/>
      <rect x="0.5" y="0.5" width="11.915" height="11.915" fill="none"/>
    </g>
    <g id="Rectangle_6" data-name="Rectangle 6" transform="translate(1300.274 776.849)" fill="#008dd4" stroke="#008dd4" stroke-width="1">
      <rect width="12.915" height="12.915" stroke="none"/>
      <rect x="0.5" y="0.5" width="11.915" height="11.915" fill="none"/>
    </g>
    <g id="Rectangle_7" data-name="Rectangle 7" transform="translate(1300.274 764.425)" fill="#00aeea" stroke="#00aeeb" stroke-width="1">
      <rect width="12.915" height="12.915" stroke="none"/>
      <rect x="0.5" y="0.5" width="11.915" height="11.915" fill="none"/>
    </g>
    <path id="Path_1" data-name="Path 1" d="M1417.783,774.123V780.6h-4.659v5.867h4.659V795.9s.962,9.569,10.653,9.81,10.933-9.81,10.933-9.81V792.75h-6.291v2.434s.1,4.714-4.641,4.659-4.29-4.659-4.29-4.659v-8.717h8.931V780.6h-8.931v-6.477Z" transform="translate(-87.858 -12.947)" fill="#fff"/>
    <path id="Exclusion_1" data-name="Exclusion 1" d="M13.065,25.607a14.7,14.7,0,0,1-1.628-.094,13.371,13.371,0,0,1-5.958-2.074A12.165,12.165,0,0,1,2.04,19.967,13.353,13.353,0,0,1,.083,15.259a15.927,15.927,0,0,1-.061-2.536A15.708,15.708,0,0,1,1.205,7.332a12.2,12.2,0,0,1,3.955-5A12.607,12.607,0,0,1,12.408,0c.126,0,.253,0,.377,0a12.136,12.136,0,0,1,4.226.724,10.878,10.878,0,0,1,3.231,1.882,12.1,12.1,0,0,1,2.3,2.6A13.575,13.575,0,0,1,23.989,8.1a16.124,16.124,0,0,1,.908,4.992,13.058,13.058,0,0,1-.108,2.164H6.279a7.042,7.042,0,0,0,1,2.119A6.611,6.611,0,0,0,8.855,19,6.425,6.425,0,0,0,11.437,20.1a6.512,6.512,0,0,0,1.213.118,5.306,5.306,0,0,0,2.156-.445,5.47,5.47,0,0,0,1.485-.978,5.619,5.619,0,0,0,1.135-1.423h7v0a13.851,13.851,0,0,1-2.444,4.114,11.9,11.9,0,0,1-3.5,2.831,11.515,11.515,0,0,1-5.415,1.287h0ZM12.493,5.292h-.118a6.227,6.227,0,0,0-3.028.791A6.157,6.157,0,0,0,7.488,7.746a7.361,7.361,0,0,0-1.194,2.392H18.732a8.108,8.108,0,0,0-1.309-2.423A6.5,6.5,0,0,0,15.505,6.05,6.086,6.086,0,0,0,12.493,5.292Z" transform="translate(1354.622 767.079)" fill="#fff"/>
    <path id="Path_4" data-name="Path 4" d="M1554.037,788.614v25.138h6.44V797.545a4.8,4.8,0,0,1,4.52-3.552c3.677-.084,4.694,3.552,4.694,3.552v16.206h6.267V797.545a10.755,10.755,0,0,0-5.923-8.691c-5.622-2.64-10,2.037-10,2.037v-2.277Z" transform="translate(-170.324 -21.096)" fill="#fff"/>
    <path id="Path_5" data-name="Path 5" d="M1616.116,789.6l8.094,11.873-9.141,13.183h7.078l5.682-8.8,5.51,8.8h7.036l-9.163-13.183,8.337-11.873h-7.321l-4.4,7.69-4.506-7.69Z" transform="translate(-206.042 -22.004)" fill="#fff"/>
  </g>
</svg>
